<?xml version="1.0" encoding="UTF-8" standalone="no"?>
<!DOCTYPE svg PUBLIC "-//W3C//DTD SVG 1.1//EN" "http://www.w3.org/Graphics/SVG/1.1/DTD/svg11.dtd">
<svg width="100%" height="100%" viewBox="0 0 177 207" version="1.1" xmlns="http://www.w3.org/2000/svg" xmlns:xlink="http://www.w3.org/1999/xlink" xml:space="preserve" xmlns:serif="http://www.serif.com/" style="fill-rule:evenodd;clip-rule:evenodd;stroke-linejoin:round;stroke-miterlimit:2;">
    <g transform="matrix(1,0,0,1,-6044.33,-164.18)">
        <g transform="matrix(0.20218,-1.54575e-17,0,0.167779,5626.05,127.181)">
            <g transform="matrix(196.9,0,0,203.757,2060,333)">
                <path d="M0.701,-0.35C0.701,-0.314 0.692,-0.281 0.674,-0.25C0.656,-0.219 0.632,-0.195 0.602,-0.177C0.571,-0.158 0.538,-0.149 0.501,-0.149L0.223,-0.149L0.223,-0.248L0.501,-0.248C0.529,-0.248 0.553,-0.258 0.573,-0.279C0.592,-0.299 0.602,-0.323 0.602,-0.35C0.602,-0.378 0.592,-0.402 0.573,-0.422C0.553,-0.441 0.529,-0.451 0.501,-0.451L0.171,-0.451L0.171,-0L0.072,-0L0.072,-0.55L0.501,-0.55C0.538,-0.55 0.571,-0.541 0.602,-0.523C0.632,-0.505 0.656,-0.481 0.674,-0.451C0.692,-0.42 0.701,-0.387 0.701,-0.35Z" style="fill:rgb(99,111,127);fill-rule:nonzero;"/>
            </g>
            <g transform="matrix(196.9,0,0,203.757,2210.04,333)">
                <path d="M0.72,-0.276C0.72,-0.225 0.709,-0.179 0.689,-0.138C0.668,-0.096 0.638,-0.063 0.6,-0.038C0.562,-0.012 0.518,-0 0.467,-0L0.293,-0C0.242,-0 0.198,-0.012 0.16,-0.038C0.121,-0.063 0.092,-0.096 0.071,-0.138C0.05,-0.179 0.039,-0.225 0.039,-0.276C0.039,-0.327 0.05,-0.373 0.071,-0.414C0.092,-0.455 0.121,-0.488 0.16,-0.513C0.198,-0.538 0.242,-0.55 0.293,-0.55L0.467,-0.55C0.518,-0.55 0.562,-0.538 0.6,-0.513C0.638,-0.488 0.668,-0.455 0.689,-0.414C0.709,-0.373 0.72,-0.327 0.72,-0.276ZM0.62,-0.276C0.62,-0.308 0.614,-0.337 0.602,-0.364C0.59,-0.391 0.572,-0.412 0.55,-0.428C0.527,-0.443 0.499,-0.451 0.467,-0.451L0.293,-0.451C0.261,-0.451 0.234,-0.443 0.211,-0.428C0.188,-0.412 0.17,-0.391 0.158,-0.364C0.145,-0.337 0.139,-0.308 0.139,-0.276C0.139,-0.244 0.145,-0.215 0.158,-0.188C0.17,-0.161 0.188,-0.14 0.211,-0.124C0.234,-0.108 0.261,-0.1 0.293,-0.1L0.467,-0.1C0.499,-0.1 0.527,-0.108 0.55,-0.124C0.572,-0.14 0.59,-0.161 0.602,-0.188C0.614,-0.215 0.62,-0.244 0.62,-0.276Z" style="fill:rgb(99,111,127);fill-rule:nonzero;"/>
            </g>
            <g transform="matrix(196.9,0,0,203.757,2359.48,333)">
                <path d="M0.65,-0L0.55,-0L0.55,-0.224L0.219,-0.224L0.219,-0.324L0.55,-0.324L0.55,-0.55L0.65,-0.55L0.65,-0ZM0.172,-0L0.072,-0L0.072,-0.55L0.172,-0.55L0.172,-0Z" style="fill:rgb(99,111,127);fill-rule:nonzero;"/>
            </g>
            <g transform="matrix(196.9,0,0,203.757,2501.65,333)">
                <path d="M0.72,-0.276C0.72,-0.225 0.709,-0.179 0.689,-0.138C0.668,-0.096 0.638,-0.063 0.6,-0.038C0.562,-0.012 0.518,-0 0.467,-0L0.293,-0C0.242,-0 0.198,-0.012 0.16,-0.038C0.121,-0.063 0.092,-0.096 0.071,-0.138C0.05,-0.179 0.039,-0.225 0.039,-0.276C0.039,-0.327 0.05,-0.373 0.071,-0.414C0.092,-0.455 0.121,-0.488 0.16,-0.513C0.198,-0.538 0.242,-0.55 0.293,-0.55L0.467,-0.55C0.518,-0.55 0.562,-0.538 0.6,-0.513C0.638,-0.488 0.668,-0.455 0.689,-0.414C0.709,-0.373 0.72,-0.327 0.72,-0.276ZM0.62,-0.276C0.62,-0.308 0.614,-0.337 0.602,-0.364C0.59,-0.391 0.572,-0.412 0.55,-0.428C0.527,-0.443 0.499,-0.451 0.467,-0.451L0.293,-0.451C0.261,-0.451 0.234,-0.443 0.211,-0.428C0.188,-0.412 0.17,-0.391 0.158,-0.364C0.145,-0.337 0.139,-0.308 0.139,-0.276C0.139,-0.244 0.145,-0.215 0.158,-0.188C0.17,-0.161 0.188,-0.14 0.211,-0.124C0.234,-0.108 0.261,-0.1 0.293,-0.1L0.467,-0.1C0.499,-0.1 0.527,-0.108 0.55,-0.124C0.572,-0.14 0.59,-0.161 0.602,-0.188C0.614,-0.215 0.62,-0.244 0.62,-0.276Z" style="fill:rgb(99,111,127);fill-rule:nonzero;"/>
            </g>
            <g transform="matrix(196.9,0,0,203.757,2651.09,333)">
                <path d="M0.724,-0.277C0.724,-0.226 0.713,-0.179 0.692,-0.137C0.671,-0.095 0.641,-0.062 0.602,-0.037C0.563,-0.012 0.518,-0 0.467,-0L0.221,-0L0.221,-0.101L0.467,-0.101C0.5,-0.101 0.528,-0.109 0.551,-0.125C0.574,-0.14 0.591,-0.161 0.604,-0.188C0.617,-0.215 0.623,-0.244 0.623,-0.277C0.623,-0.31 0.617,-0.339 0.604,-0.365C0.591,-0.391 0.574,-0.412 0.551,-0.428C0.528,-0.443 0.5,-0.451 0.467,-0.451L0.174,-0.451L0.174,-0L0.072,-0L0.072,-0.552L0.467,-0.552C0.518,-0.552 0.563,-0.54 0.602,-0.515C0.641,-0.49 0.671,-0.457 0.692,-0.416C0.713,-0.375 0.724,-0.328 0.724,-0.277Z" style="fill:rgb(99,111,127);fill-rule:nonzero;"/>
            </g>
            <g transform="matrix(196.9,0,0,203.757,2801.33,333)">
                <path d="M0.701,-0L0.601,-0L0.601,-0.151L0.216,-0.151L0.216,-0.253L0.601,-0.253L0.601,-0.451L0.341,-0.451C0.308,-0.451 0.279,-0.443 0.252,-0.427C0.225,-0.411 0.204,-0.39 0.188,-0.364C0.172,-0.337 0.164,-0.308 0.164,-0.275L0.164,-0L0.063,-0L0.063,-0.275C0.063,-0.313 0.07,-0.349 0.085,-0.383C0.099,-0.416 0.119,-0.446 0.145,-0.471C0.17,-0.496 0.2,-0.516 0.234,-0.531C0.267,-0.545 0.303,-0.552 0.341,-0.552L0.701,-0.552L0.701,-0Z" style="fill:rgb(99,111,127);fill-rule:nonzero;"/>
            </g>
        </g>
        <g transform="matrix(0.203082,-6.18298e-17,1.54575e-17,0.168527,5623.11,314.664)">
            <g transform="matrix(196.9,0,0,203.757,2060,333)">
                <path d="M0.724,-0.277C0.724,-0.226 0.713,-0.179 0.692,-0.137C0.671,-0.095 0.641,-0.062 0.602,-0.037C0.563,-0.012 0.518,-0 0.467,-0L0.221,-0L0.221,-0.101L0.467,-0.101C0.5,-0.101 0.528,-0.109 0.551,-0.125C0.574,-0.14 0.591,-0.161 0.604,-0.188C0.617,-0.215 0.623,-0.244 0.623,-0.277C0.623,-0.31 0.617,-0.339 0.604,-0.365C0.591,-0.391 0.574,-0.412 0.551,-0.428C0.528,-0.443 0.5,-0.451 0.467,-0.451L0.174,-0.451L0.174,-0L0.072,-0L0.072,-0.552L0.467,-0.552C0.518,-0.552 0.563,-0.54 0.602,-0.515C0.641,-0.49 0.671,-0.457 0.692,-0.416C0.713,-0.375 0.724,-0.328 0.724,-0.277Z" style="fill:rgb(99,111,127);fill-rule:nonzero;"/>
            </g>
            <g transform="matrix(196.9,0,0,203.757,2210.23,333)">
                <path d="M0.72,-0.276C0.72,-0.225 0.709,-0.179 0.689,-0.138C0.668,-0.096 0.638,-0.063 0.6,-0.038C0.562,-0.012 0.518,-0 0.467,-0L0.293,-0C0.242,-0 0.198,-0.012 0.16,-0.038C0.121,-0.063 0.092,-0.096 0.071,-0.138C0.05,-0.179 0.039,-0.225 0.039,-0.276C0.039,-0.327 0.05,-0.373 0.071,-0.414C0.092,-0.455 0.121,-0.488 0.16,-0.513C0.198,-0.538 0.242,-0.55 0.293,-0.55L0.467,-0.55C0.518,-0.55 0.562,-0.538 0.6,-0.513C0.638,-0.488 0.668,-0.455 0.689,-0.414C0.709,-0.373 0.72,-0.327 0.72,-0.276ZM0.62,-0.276C0.62,-0.308 0.614,-0.337 0.602,-0.364C0.59,-0.391 0.572,-0.412 0.55,-0.428C0.527,-0.443 0.499,-0.451 0.467,-0.451L0.293,-0.451C0.261,-0.451 0.234,-0.443 0.211,-0.428C0.188,-0.412 0.17,-0.391 0.158,-0.364C0.145,-0.337 0.139,-0.308 0.139,-0.276C0.139,-0.244 0.145,-0.215 0.158,-0.188C0.17,-0.161 0.188,-0.14 0.211,-0.124C0.234,-0.108 0.261,-0.1 0.293,-0.1L0.467,-0.1C0.499,-0.1 0.527,-0.108 0.55,-0.124C0.572,-0.14 0.59,-0.161 0.602,-0.188C0.614,-0.215 0.62,-0.244 0.62,-0.276Z" style="fill:rgb(99,111,127);fill-rule:nonzero;"/>
            </g>
            <g transform="matrix(196.9,0,0,203.757,2359.68,333)">
                <path d="M0.65,-0L0.55,-0L0.55,-0.224L0.219,-0.224L0.219,-0.324L0.55,-0.324L0.55,-0.55L0.65,-0.55L0.65,-0ZM0.172,-0L0.072,-0L0.072,-0.55L0.172,-0.55L0.172,-0Z" style="fill:rgb(99,111,127);fill-rule:nonzero;"/>
            </g>
            <g transform="matrix(196.9,0,0,203.757,2501.84,333)">
                <path d="M0.72,-0.276C0.72,-0.225 0.709,-0.179 0.689,-0.138C0.668,-0.096 0.638,-0.063 0.6,-0.038C0.562,-0.012 0.518,-0 0.467,-0L0.293,-0C0.242,-0 0.198,-0.012 0.16,-0.038C0.121,-0.063 0.092,-0.096 0.071,-0.138C0.05,-0.179 0.039,-0.225 0.039,-0.276C0.039,-0.327 0.05,-0.373 0.071,-0.414C0.092,-0.455 0.121,-0.488 0.16,-0.513C0.198,-0.538 0.242,-0.55 0.293,-0.55L0.467,-0.55C0.518,-0.55 0.562,-0.538 0.6,-0.513C0.638,-0.488 0.668,-0.455 0.689,-0.414C0.709,-0.373 0.72,-0.327 0.72,-0.276ZM0.62,-0.276C0.62,-0.308 0.614,-0.337 0.602,-0.364C0.59,-0.391 0.572,-0.412 0.55,-0.428C0.527,-0.443 0.499,-0.451 0.467,-0.451L0.293,-0.451C0.261,-0.451 0.234,-0.443 0.211,-0.428C0.188,-0.412 0.17,-0.391 0.158,-0.364C0.145,-0.337 0.139,-0.308 0.139,-0.276C0.139,-0.244 0.145,-0.215 0.158,-0.188C0.17,-0.161 0.188,-0.14 0.211,-0.124C0.234,-0.108 0.261,-0.1 0.293,-0.1L0.467,-0.1C0.499,-0.1 0.527,-0.108 0.55,-0.124C0.572,-0.14 0.59,-0.161 0.602,-0.188C0.614,-0.215 0.62,-0.244 0.62,-0.276Z" style="fill:rgb(99,111,127);fill-rule:nonzero;"/>
            </g>
            <g transform="matrix(196.9,0,0,203.757,2651.29,333)">
                <path d="M0.724,-0.277C0.724,-0.226 0.713,-0.179 0.692,-0.137C0.671,-0.095 0.641,-0.062 0.602,-0.037C0.563,-0.012 0.518,-0 0.467,-0L0.221,-0L0.221,-0.101L0.467,-0.101C0.5,-0.101 0.528,-0.109 0.551,-0.125C0.574,-0.14 0.591,-0.161 0.604,-0.188C0.617,-0.215 0.623,-0.244 0.623,-0.277C0.623,-0.31 0.617,-0.339 0.604,-0.365C0.591,-0.391 0.574,-0.412 0.551,-0.428C0.528,-0.443 0.5,-0.451 0.467,-0.451L0.174,-0.451L0.174,-0L0.072,-0L0.072,-0.552L0.467,-0.552C0.518,-0.552 0.563,-0.54 0.602,-0.515C0.641,-0.49 0.671,-0.457 0.692,-0.416C0.713,-0.375 0.724,-0.328 0.724,-0.277Z" style="fill:rgb(99,111,127);fill-rule:nonzero;"/>
            </g>
            <g transform="matrix(196.9,0,0,203.757,2801.52,333)">
                <path d="M0.701,-0L0.601,-0L0.601,-0.151L0.216,-0.151L0.216,-0.253L0.601,-0.253L0.601,-0.451L0.341,-0.451C0.308,-0.451 0.279,-0.443 0.252,-0.427C0.225,-0.411 0.204,-0.39 0.188,-0.364C0.172,-0.337 0.164,-0.308 0.164,-0.275L0.164,-0L0.063,-0L0.063,-0.275C0.063,-0.313 0.07,-0.349 0.085,-0.383C0.099,-0.416 0.119,-0.446 0.145,-0.471C0.17,-0.496 0.2,-0.516 0.234,-0.531C0.267,-0.545 0.303,-0.552 0.341,-0.552L0.701,-0.552L0.701,-0Z" style="fill:rgb(99,111,127);fill-rule:nonzero;"/>
            </g>
        </g>
        <g transform="matrix(0.701893,-2.47319e-16,9.27448e-17,0.711515,4825.76,67.0365)">
            <path d="M1872.36,281.219C1872.36,275.032 1877.44,270.016 1883.72,270.015C1898.55,270.011 1922.64,270.004 1922.64,270.004L1922.65,198.608L1760.5,198.62L1760.35,377.01C1760.35,383.315 1755.26,388.43 1748.99,388.425C1742.73,388.42 1737.64,383.296 1737.65,376.99L1737.81,187.187C1737.81,180.881 1742.89,175.772 1749.16,175.772L1934,175.758C1937.01,175.758 1939.9,176.961 1942.03,179.104C1944.16,181.247 1945.36,184.154 1945.36,187.184L1945.34,280.218C1945.38,280.614 1945.4,281.016 1945.4,281.423C1945.41,286.278 1942.39,290.431 1938.14,292.085C1936.86,292.594 1935.46,292.874 1933.99,292.874C1933.99,292.874 1901.53,292.883 1883.72,292.888C1880.71,292.889 1877.82,291.709 1875.69,289.607C1873.56,287.506 1872.36,284.656 1872.36,281.684C1872.36,281.529 1872.36,281.374 1872.36,281.219ZM1853.32,281.465C1853.32,287.779 1848.13,292.898 1841.73,292.899C1826.88,292.904 1803.04,292.91 1803.04,292.91L1803.03,364.306L1965.18,364.294L1965.33,185.905C1965.34,179.599 1970.43,174.484 1976.69,174.489C1982.96,174.495 1988.04,179.618 1988.03,185.924L1987.87,375.727C1987.87,382.033 1982.79,387.142 1976.52,387.142L1791.68,387.156C1788.67,387.156 1785.78,385.953 1783.65,383.81C1781.52,381.667 1780.33,378.76 1780.33,375.73L1780.34,282.696C1780.3,282.3 1780.28,281.898 1780.28,281.491C1780.28,276.636 1783.29,272.483 1787.54,270.829C1788.82,270.32 1790.22,270.04 1791.69,270.04C1791.69,270.04 1823.87,270.031 1841.72,270.026C1844.8,270.025 1847.75,271.23 1849.92,273.374C1852.1,275.519 1853.32,278.428 1853.32,281.461C1853.32,281.462 1853.32,281.463 1853.32,281.465Z" style="fill:rgb(255,102,82);"/>
        </g>
    </g>
</svg>
