<?xml version="1.0" encoding="UTF-8" standalone="no"?>
<!DOCTYPE svg PUBLIC "-//W3C//DTD SVG 1.1//EN" "http://www.w3.org/Graphics/SVG/1.1/DTD/svg11.dtd">
<svg width="100%" height="100%" viewBox="0 0 176 153" version="1.1" xmlns="http://www.w3.org/2000/svg" xmlns:xlink="http://www.w3.org/1999/xlink" xml:space="preserve" xmlns:serif="http://www.serif.com/" style="fill-rule:evenodd;clip-rule:evenodd;stroke-linejoin:round;stroke-miterlimit:2;">
    <g transform="matrix(1,0,0,1,-6045.41,-191.188)">
        <g transform="matrix(0.701893,-2.47319e-16,9.27448e-17,0.711515,4825.76,67.0365)">
            <path d="M1872.36,281.219C1872.36,275.032 1877.44,270.016 1883.72,270.015C1898.55,270.011 1922.64,270.004 1922.64,270.004L1922.65,198.608L1760.5,198.62L1760.35,377.01C1760.35,383.315 1755.26,388.43 1748.99,388.425C1742.73,388.42 1737.64,383.296 1737.65,376.99L1737.81,187.187C1737.81,180.881 1742.89,175.772 1749.16,175.772L1934,175.758C1937.01,175.758 1939.9,176.961 1942.03,179.104C1944.16,181.247 1945.36,184.154 1945.36,187.184L1945.34,280.218C1945.38,280.614 1945.4,281.016 1945.4,281.423C1945.41,286.278 1942.39,290.431 1938.14,292.085C1936.86,292.594 1935.46,292.874 1933.99,292.874C1933.99,292.874 1901.53,292.883 1883.72,292.888C1880.71,292.889 1877.82,291.709 1875.69,289.607C1873.56,287.506 1872.36,284.656 1872.36,281.684C1872.36,281.529 1872.36,281.374 1872.36,281.219ZM1853.32,281.465C1853.32,287.779 1848.13,292.898 1841.73,292.899C1826.88,292.904 1803.04,292.91 1803.04,292.91L1803.03,364.306L1965.18,364.294L1965.33,185.905C1965.34,179.599 1970.43,174.484 1976.69,174.489C1982.96,174.495 1988.04,179.618 1988.03,185.924L1987.87,375.727C1987.87,382.033 1982.79,387.142 1976.52,387.142L1791.68,387.156C1788.67,387.156 1785.78,385.953 1783.65,383.81C1781.52,381.667 1780.33,378.76 1780.33,375.73L1780.34,282.696C1780.3,282.3 1780.28,281.898 1780.28,281.491C1780.28,276.636 1783.29,272.483 1787.54,270.829C1788.82,270.32 1790.22,270.04 1791.69,270.04C1791.69,270.04 1823.87,270.031 1841.72,270.026C1844.8,270.025 1847.75,271.23 1849.92,273.374C1852.1,275.519 1853.32,278.428 1853.32,281.461C1853.32,281.462 1853.32,281.463 1853.32,281.465Z" style="fill:rgb(255,102,82);"/>
        </g>
    </g>
</svg>
