<svg width="157" height="230" viewBox="0 0 157 230" fill="none"><path d="M77.1819 205.211c0 .503.4077.911.9107.911.5029 0 .9107-.408.9107-.911 0-.502-.4078-.91-.9107-.91-.503 0-.9107.408-.9107.91ZM77.1819 24.5132a.9107.9107 0 1 0 1.8214 0 .9107.9107 0 0 0-1.8214 0Z" fill="#243F85"></path><path d="M156.109 0H0v229.8h156.109V0ZM58.133 12.6739h39.995V2.2768h22.388v33.0887H35.5932V2.2768H58.133v10.3971Zm.7589-10.3971H97.369v9.7141H58.8919V2.2767Zm33.9995 34.6066c-3.7946 4.2499-9.107 6.6784-14.7989 6.6784-5.6918 0-11.0043-2.4285-14.7988-6.6784h29.5977Zm-59.0437 0h28.4594c3.9463 4.7052 9.6382 7.3615 15.7854 7.3615 6.1473 0 11.8391-2.7321 15.7855-7.3615h28.156V2.2767h26.79c.531 2.3527 2.504 4.174 5.008 4.4777V114.369H98.9628c-.2277-11.156-9.4106-20.1874-20.5667-20.1874-2.5044 0-4.8571.4553-7.0579 1.2901-2.8839.9866-5.4642 2.6562-7.6651 4.8573-3.7946 3.794-5.9195 8.727-5.9954 14.04H2.5803V6.7544c2.4286-.2277 4.4776-2.125 5.0089-4.4777h26.4862v34.6067h-.2277ZM149.583 227.523c.455-1.973 2.124-3.415 4.174-3.718v3.718h-4.174Zm-71.2628-93.65c-10.3212 0-18.7452-8.272-19.0488-18.518h18.0622c.1518.228.4554.38.7589.38.3036 0 .6072-.152.759-.38H97.369c-.2276 10.246-8.7275 18.518-19.0488 18.518Zm.5313-19.504c-.1518-.228-.4554-.38-.759-.38-.3035 0-.6071.152-.7589.38H59.2714c.2277-10.322 8.7276-18.6696 19.0488-18.6696 10.3972 0 18.8212 8.3476 19.0488 18.6696H78.8515ZM153.757 5.9196c-1.974-.2277-3.643-1.7456-4.099-3.6429h4.099v3.6429ZM6.6026 2.2767C6.0713 4.174 4.4776 5.692 2.5044 5.9196V2.2767h4.0982ZM2.4286 223.805c2.049.227 3.6427 1.745 4.174 3.718h-4.174v-3.718Zm0-.835V115.355h55.0973c.1518 5.313 2.2768 10.246 5.9954 14.04 3.8705 3.871 9.0312 5.996 14.5712 5.996.759 0 1.5179-.076 2.2768-.152 10.2454-.987 18.2899-9.486 18.5935-19.96h54.7942V222.97c-2.505.303-4.478 2.125-5.009 4.553h-26.79v-34.53H93.9539c-3.9464-4.782-9.7141-7.59-15.9372-7.59-6.2232 0-11.9909 2.732-15.9373 7.59H33.7718v34.53H7.3615c-.4554-2.428-2.4285-4.25-4.933-4.553Zm56.4633 4.553v-9.714H97.369v9.714H58.8919Zm39.1602-10.473h-39.995v10.473H35.5173V194.51h84.9987v33.013H98.128V217.05h-.0759Zm-34.9102-24.057c3.7946-4.326 9.1829-6.831 14.9506-6.831 5.7678 0 11.1561 2.505 14.9507 6.831H63.1419Z" fill="#243F85"></path><path d="M76.6506 24.0575c0 .964.7815 1.7455 1.7455 1.7455.9641 0 1.7455-.7815 1.7455-1.7455 0-.964-.7814-1.7455-1.7455-1.7455-.964 0-1.7455.7815-1.7455 1.7455ZM76.6506 114.976c0 .964.7815 1.745 1.7455 1.745.9641 0 1.7455-.781 1.7455-1.745 0-.964-.7814-1.746-1.7455-1.746-.964 0-1.7455.782-1.7455 1.746ZM76.6506 205.135c0 .964.7815 1.746 1.7455 1.746.9641 0 1.7455-.782 1.7455-1.746s-.7814-1.745-1.7455-1.745c-.964 0-1.7455.781-1.7455 1.745Z" fill="#243F85"></path></svg>